<?xml version="1.0" encoding="UTF-8"?>
<svg id="Capa_1" data-name="Capa 1" xmlns="http://www.w3.org/2000/svg" viewBox="0 0 1003.52 322.74">
  <path d="M168.07,157.97c-.04,31.25-.03,62.34.02,93.27,0,.54-.43.97-.97.97h-.27c-.47,0-.85-.38-.85-.85v-13.08c0-.31-.25-.56-.57-.56-.04,0-.08,0-.11.01-15.98,3.21-14.91,25.96,1.57,27.12.6.04,1.06.53,1.06,1.13v.28c0,.44-.36.8-.81.8-.01,0-.02,0-.03,0-19.59-.77-20.85-28.67-1.9-31.34.48-.07.85-.47.88-.95v-.04c.03-.4-.27-.75-.68-.78-.03,0-.06,0-.09,0-8.07.46-14.19,7.46-15.2,14.63-1.53,10.91,5.94,19.65,16.99,20.3.42.02.75.37.75.79v.63c0,.41-.33.75-.75.75-.01,0-.03,0-.04,0-15.27-.69-23.77-15.72-17.01-29.03,3.08-6.08,8.1-9.47,15.06-10.18.53-.06.94-.49.97-1.02v-.04c.02-.44-.31-.81-.75-.83-.04,0-.08,0-.13,0-12.6,1.43-21.04,12.7-19,24.79,1.78,10.47,10.19,17.59,20.73,18.18.51.03.92.44.96.95v.04c.05.48-.32.91-.81.95,0,0-.02,0-.02,0-9.59.49-18.16-6.3-21.6-14.68-2.71-6.58-2.37-13.79,1.14-20.16,3.99-7.23,10.23-11.33,18.72-12.29.35-.04.61-.33.61-.68v-63.62c0-.22-.18-.4-.39-.4-.15,0-.28.08-.35.2l-42.08,73.97c-.13.23-.06.53.16.68,10.72,7.4,13.51,21.21,6.93,32.2-8.93,14.91-29.99,14.37-39.4.7-7.45-10.84-4.2-27.51,8.66-34.12,6.7-3.44,13.7-3.59,20.99-.45.25.11.54,0,.68-.23,17.67-31.19,31.56-55.53,41.68-73.03.19-.34.32-.67.39-.99,0-.04-.02-.07-.06-.08-.01,0-.03,0-.04,0l-54.58,31.51c-.37.21-.51.68-.33,1.07,4.3,8.87,2.54,19.75-4.34,26.82-14.43,14.82-39.73,4.68-40.07-16.03-.09-5.59,1.46-10.47,4.65-14.63,10.05-13.12,28.49-12.27,38.14.8.13.18.36.23.55.12l54.88-31.69c.19-.11.25-.36.13-.55-.07-.12-.2-.2-.34-.2h-84.19c-.29,0-.54.22-.57.51-1.77,21.09-27.48,29.96-41.21,13.8-3.86-4.53-5.79-9.66-5.79-15.37,0-5.71,1.92-10.83,5.77-15.37,13.71-16.18,39.43-7.34,41.23,13.75.03.29.28.51.57.51l84.19-.1c.23,0,.41-.19.4-.41,0-.14-.07-.27-.19-.34l-54.92-31.62c-.19-.11-.42-.06-.55.12-9.63,13.08-28.07,13.95-38.14.84-3.19-4.15-4.75-9.03-4.67-14.62.32-20.71,25.61-30.88,40.06-16.08,6.88,7.06,8.66,17.94,4.37,26.82-.18.39-.04.85.33,1.06l54.62,31.45s.08,0,.09-.03c0-.01,0-.02,0-.04-.07-.32-.21-.65-.4-.99-10.14-17.49-24.06-41.81-41.76-72.98-.14-.24-.43-.34-.68-.23-7.29,3.15-14.29,3.01-20.99-.42-12.87-6.6-16.14-23.27-8.7-34.11,9.39-13.69,30.45-14.25,39.4.65,6.59,10.98,3.82,24.79-6.89,32.21-.22.15-.29.45-.16.68l42.16,73.92c.1.19.34.26.53.16.13-.07.21-.21.21-.36l-.07-63.62c0-.35-.26-.64-.61-.68-8.49-.95-14.73-5.04-18.74-12.27-3.51-6.37-3.86-13.58-1.16-20.16,3.43-8.38,11.99-15.18,21.58-14.7.49.03.87.44.84.93,0,0,0,0,0,.01v.04c-.04.52-.45.93-.97.96-10.54.6-18.94,7.73-20.7,18.2-2.03,12.09,6.42,23.35,19.02,24.77.44.04.83-.27.88-.71,0-.04,0-.08,0-.12v-.04c-.03-.53-.44-.96-.97-1.02-6.96-.7-11.98-4.09-15.07-10.16-6.78-13.31,1.71-28.35,16.98-29.05.41-.02.77.3.79.71,0,.01,0,.02,0,.03v.63c0,.43-.33.78-.75.8-11.05.66-18.51,9.41-16.97,20.32,1.02,7.16,7.15,14.16,15.22,14.61.4.02.75-.28.77-.69,0-.03,0-.06,0-.09v-.04c-.03-.48-.4-.88-.88-.95-18.96-2.65-17.73-30.55,1.86-31.34.45-.02.82.33.84.77,0,0,0,.01,0,.02v.28c0,.6-.46,1.1-1.06,1.14-16.48,1.18-17.52,23.93-1.53,27.12.31.06.61-.15.66-.45,0-.03,0-.07,0-.1v-13.08c0-.47.37-.85.84-.85h.27c.53,0,.96.43.97.96-.02,30.93,0,62.02.09,93.27ZM99.54,40.17c-15.59,9.11-13.34,31.84,3.3,38.2,5.21,1.99,10.68,1.77,16.42-.66.4-.17.58-.62.42-1.01,0,0,0-.01,0-.02l-.03-.07c-.18-.41-.66-.6-1.08-.43-13.32,5.57-27.22-2.72-27.83-17.16-.29-7.09,3.68-13.91,9.66-17.4,5.97-3.49,13.86-3.61,19.89.13,12.29,7.61,12.69,23.79,1.3,32.66-.36.28-.43.8-.16,1.16l.05.06c.25.34.74.41,1.09.15,0,0,0,0,.01-.01,4.93-3.81,7.81-8.47,8.63-13.98,2.62-17.61-16.08-30.74-31.66-21.62ZM101.69,43.37c-9.43,5.36-11.53,17.89-4.6,26.19,4.97,5.97,11.67,7.63,20.1,5,.36-.11.56-.49.45-.85,0-.03-.02-.05-.03-.08l-.21-.5c-.13-.29-.46-.43-.76-.32-9.5,3.57-19.12-1.01-21.6-10.98-1.63-6.6,1.7-13.67,7.5-16.96,5.8-3.29,13.57-2.54,18.41,2.25,7.29,7.23,6.29,17.84-1.64,24.17-.25.2-.3.56-.11.82l.32.44c.22.31.64.38.95.16.02-.02.04-.03.06-.05,6.58-5.89,8.58-12.49,6.01-19.82-3.59-10.21-15.43-14.82-24.85-9.47ZM103.88,46.75c-7.6,4.22-9.23,14.52-3.21,20.84,3.78,3.97,8.63,5.1,14.54,3.39.29-.08.46-.38.38-.68-.01-.05-.04-.1-.06-.14-2.39-4.12-4.48-7.95-6.27-11.49-.25-.49-.08-.89.51-1.21.63-.35,1.09-.3,1.37.17,2.05,3.39,4.2,7.19,6.43,11.4.14.27.47.38.74.24.04-.02.08-.05.12-.08,4.59-4.11,6.19-8.82,4.82-14.13-2.18-8.45-11.78-12.52-19.37-8.31ZM68.68,100.81c-8.93,15.68,4.37,34.22,21.94,31.41,5.5-.88,10.13-3.8,13.88-8.77.26-.34.2-.83-.14-1.09,0,0-.01,0-.02-.01l-.06-.05c-.37-.27-.88-.19-1.15.17-8.74,11.48-24.91,11.24-32.65-.94-3.8-6-3.76-13.88-.33-19.88,3.42-6.01,10.18-10.05,17.28-9.83,14.42.45,22.86,14.25,17.43,27.61-.17.42.02.9.44,1.08l.08.03c.39.17.85-.02,1.02-.41,0,0,0,0,0,0,2.37-5.76,2.53-11.23.48-16.41-6.53-16.55-29.26-18.57-38.2-2.9ZM72.16,102.68c-5.77,10.05-.61,21.59,10.07,25.14,6.8,2.27,14.61-.65,18.88-6.44.22-.3.15-.73-.15-.96-.03-.02-.06-.04-.09-.05l-.11-.05c-.43-.23-.96-.1-1.25.29-3.87,5.21-10.81,7.68-16.98,5.61-9.5-3.19-14.18-13.77-9.02-22.76,5.17-8.99,16.66-10.27,24.21-3.67,4.89,4.28,6.25,11.52,3.7,17.49-.19.44-.03.96.38,1.22l.1.07c.32.2.75.11.95-.2.02-.03.04-.06.05-.1,2.85-6.6,1.43-14.82-3.95-19.55-8.45-7.44-21.02-6.08-26.79,3.96ZM75.64,104.62c-4.33,7.48-.46,17.11,7.91,19.44,5.26,1.46,9.98-.05,14.15-4.54.21-.22.2-.57-.03-.78-.03-.03-.07-.06-.11-.08-4.15-2.3-7.9-4.5-11.23-6.61-.45-.29-.51-.72-.18-1.3.36-.62.78-.8,1.25-.55,3.49,1.84,7.26,3.99,11.33,6.45.26.16.6.07.76-.19.02-.04.04-.08.05-.12,1.81-5.85.78-10.7-3.1-14.53-6.19-6.1-16.47-4.67-20.8,2.81ZM32.3,158.01c-.01,18.12,20.83,27.67,34.76,16.49,4.36-3.51,6.94-8.36,7.74-14.56.05-.43-.25-.83-.68-.88,0,0,0,0,0,0h-.08c-.45-.06-.86.26-.92.71-1.92,14.36-16.14,22.2-28.95,15.41-6.3-3.33-10.18-10.22-10.18-17.17s3.89-13.83,10.18-17.17c12.81-6.78,27.03,1.06,28.95,15.42.06.45.47.77.92.72h.08c.43-.06.73-.45.68-.89,0,0,0,0,0,0-.8-6.2-3.38-11.05-7.74-14.56-13.93-11.19-34.76-1.64-34.76,16.48ZM69.54,159.1c-.27,0-.49.2-.52.47-.75,8.9-8.62,14.99-17.35,13.94-14.55-1.74-18.66-20.67-6.59-28.53,3.86-2.51,7.74-3.31,11.64-2.4,6.93,1.63,11.08,6.23,12.47,13.82.08.4.41.71.81.75h.07c.33.05.63-.18.67-.51,0-.05,0-.09,0-.14-.49-4.46-2.25-8.15-5.26-11.07-11.14-10.77-29.67-2.42-29.17,13.25.22,7.03,5.25,14.07,11.9,15.93,7.73,2.15,14.2.04,19.39-6.32,1.43-1.75,2.52-4.66,3.27-8.75.04-.2-.09-.39-.29-.43-.02,0-.04,0-.07,0h-.97ZM40.28,157.93c-.05,8.64,8.14,15.43,16.79,13.1,5.14-1.39,8.41-5.09,9.81-11.12.08-.33-.12-.66-.44-.73-.05-.01-.1-.02-.15-.02-5.79,0-10.05,0-12.76-.02-.61,0-.91-.38-.9-1.15,0-.75.31-1.13.92-1.12,2.71.02,6.96.06,12.75.13.33,0,.61-.26.61-.59,0-.05,0-.1-.01-.15-1.33-6.05-4.56-9.79-9.68-11.23-8.63-2.43-16.89,4.26-16.94,12.9ZM68.79,215.3c9.01,15.6,31.7,13.46,38.13-3.1,2.01-5.19,1.82-10.65-.57-16.38-.16-.4-.62-.59-1.01-.43,0,0-.01,0-.02,0l-.07.03c-.42.18-.61.66-.44,1.08,5.49,13.32-2.85,27.14-17.26,27.67-7.08.26-13.85-3.74-17.31-9.73-3.45-5.97-3.53-13.84.23-19.85,7.66-12.21,23.81-12.53,32.6-1.12.27.36.78.44,1.15.17l.06-.05c.34-.25.42-.74.16-1.08,0,0,0-.01-.01-.02-3.77-4.94-8.41-7.83-13.9-8.68-17.56-2.71-30.75,15.87-21.74,31.48ZM72.28,213.28c3.36,5.8,9.03,8.99,15.83,8.67,12.58-.59,19.37-13.36,14.58-24.48-.12-.28-.46-.41-.74-.29-.02,0-.03.02-.05.03l-.37.21c-.29.17-.41.53-.28.84,4.36,10.02-2.06,21.59-13.37,22.03-5.9.22-11.28-2.64-14.26-7.78-2.98-5.14-2.78-11.24.35-16.24,6.01-9.59,19.24-9.4,25.76-.63.21.27.58.34.87.17l.36-.22c.27-.16.36-.5.2-.77,0-.01-.02-.03-.03-.04-7.26-9.69-21.72-10.15-28.49.46-3.66,5.74-3.71,12.25-.36,18.04ZM75.72,211.39c4.33,7.38,14.73,9,20.91,2.64,3.67-3.78,4.57-8.59,2.71-14.42-.1-.32-.43-.49-.75-.4-.05.01-.09.03-.13.06-4.93,2.93-8.55,5.08-10.86,6.44-.51.31-.96.13-1.35-.52-.38-.64-.31-1.11.21-1.42,2.31-1.35,5.95-3.47,10.92-6.35.29-.17.38-.54.21-.82-.02-.04-.05-.08-.08-.11-4.19-4.47-8.83-6.02-13.92-4.65-8.57,2.3-12.21,12.17-7.87,19.55ZM99.78,276.13c9.06,5.13,20.53,2.98,26.87-4.93,8.01-9.98,6.01-23.59-4.49-31.27-.2-.15-.48-.1-.63.1-.03.04-.05.08-.06.12l-.11.29c-.15.44,0,.92.36,1.2,8.4,6.22,10.57,17.04,5.24,25.98-5.57,9.35-17.21,12.21-26.34,7.04-9.13-5.18-12.66-16.64-7.5-26.21,4.93-9.17,15.33-12.87,24.98-8.86.43.17.92.05,1.21-.31l.2-.24c.16-.19.14-.47-.05-.63-.04-.03-.08-.06-.12-.08-11.98-5.06-24.69.22-29.14,12.22-3.52,9.5.53,20.45,9.58,25.58ZM101.78,272.78c7.96,4.45,18.97,1.82,23.32-6.4,4.49-8.51,3.1-16.05-4.17-22.62-.41-.37-1.02-.39-1.46-.07l-.06.04c-.31.23-.38.66-.16.97.04.06.09.11.15.15,4.49,3.32,6.65,7.71,6.46,13.16-.39,11.51-12.75,19.17-23.25,13.3-10.51-5.87-10.45-20.42-.85-26.78,4.55-3.01,9.41-3.47,14.59-1.38.35.14.76-.03.9-.39.03-.07.04-.14.05-.21v-.07c.05-.55-.29-1.05-.82-1.21-9.41-2.75-16.56.01-21.45,8.29-4.73,8.01-1.2,18.77,6.75,23.22ZM103.71,269.31c7.59,4.27,17.24.26,19.48-8.19,1.41-5.31-.16-10.04-4.73-14.19-.22-.21-.57-.19-.78.03-.03.04-.06.08-.08.12-2.27,4.21-4.45,8-6.53,11.38-.29.46-.74.51-1.37.16-.59-.33-.76-.73-.51-1.22,1.81-3.53,3.94-7.36,6.37-11.47.16-.26.08-.6-.18-.76-.04-.03-.09-.05-.14-.06-5.91-1.76-10.78-.66-14.6,3.29-6.07,6.3-4.51,16.63,3.07,20.91Z"/>
  <g>
    <circle cx="342.6" cy="111.69" r="13.33"/>
    <path d="M696.98,157.79c-.05,36.69-.11,55.61-.17,56.76-.02.32-.28.57-.6.57h-23.99c-.36,0-.65-.29-.65-.65h0v-10.32c0-.21-.18-.39-.39-.39-.09,0-.18.03-.24.09-8.16,6.73-16.67,10.73-25.54,12.02-18.96,2.77-37.83-3.9-50.94-18.05-8.83-9.53-13.95-21.23-15.35-35.08-.17-1.69-.26-3.4-.25-5.13,0-1.73.09-3.45.26-5.14,1.45-13.85,6.6-25.52,15.46-35.03,13.16-14.11,32.05-20.72,51-17.89,8.86,1.31,17.36,5.35,25.5,12.1.16.14.4.12.54-.05.06-.07.09-.16.09-.25l.04-10.32c0-.36.29-.65.65-.65h0l23.99.08c.32,0,.58.25.6.57.05,1.15.05,20.07,0,56.76ZM637.72,122.63c-18.69.1-33.76,15.89-33.66,35.28.1,19.38,15.33,35.02,34.02,34.92,18.69-.1,33.76-15.89,33.66-35.28-.1-19.38-15.33-35.02-34.02-34.92Z"/>
    <g>
      <path d="M222.02,111.93c10.25-8.67,22.18-12.99,35.81-12.96,31.75.09,56.82,23.33,58.87,54.73,2.35,35.81-25.99,64.83-62.08,62.72-11.96-.7-22.84-5.07-32.63-13.1-.16-.13-.39-.1-.52.06-.05.07-.08.15-.08.23v11.04c0,.3-.24.55-.54.55h-24.22c-.27,0-.49-.22-.49-.49V50.19c0-.22.17-.39.39-.39h24.42c.29,0,.53.24.53.53v61.35c0,.18.15.33.33.33.08,0,.15-.03.21-.08ZM291.46,157.73c0-19.4-15.73-35.13-35.13-35.13h0c-19.4,0-35.13,15.73-35.13,35.13h0c0,19.4,15.73,35.13,35.13,35.13h0c19.4,0,35.13-15.73,35.13-35.13h0Z"/>
      <path d="M390.35,49.81h24.31c.28,0,.51.23.51.51h0v25.39c0,.24.2.44.45.44h22.59c.28,0,.51.23.51.51h0v23.31c0,.2-.17.36-.37.36h-22.82c-.2,0-.36.16-.36.36h0c0,44.89-.01,71.32-.04,79.29,0,4.35.99,8.33,4.6,10.67,6.03,3.89,11.85-.93,13.95-6.52.11-.3.45-.45.75-.34l21.17,7.61c.53.19.81.76.63,1.29-6.37,19.22-24,27.85-43.03,22.38-11.15-3.21-18.55-11.14-22.21-23.8-.86-2.97-1.31-7.98-1.34-15.04-.02-3.77-.02-28.92-.01-75.44,0-.25-.2-.45-.45-.45h-22.71c-.2,0-.37-.17-.37-.38v-23.35c0-.25.2-.46.45-.46h22.48c.32,0,.58-.26.58-.57h0v-25.03c0-.41.33-.74.73-.74Z"/>
      <path d="M489.26,110.92c1.95-1.4,4.27-3.8,6.83-5.36,10.28-6.26,20.96-7.52,32.58-6.22,16.84,1.88,30.73,13.33,36.73,29.13,2.53,6.68,3.8,14.35,3.8,23.02.01,39.84.02,60.92.02,63.25,0,.25-.2.45-.45.45h-24.56c-.28,0-.51-.23-.51-.51-.03-33.45-.04-54.01-.03-61.7,0-7.48-1.38-14.41-5.65-20.17-5.25-7.09-12.56-10.37-21.92-9.84-16.03.91-24.21,14.5-24.29,29.51-.05,8.39-.04,29.18.01,62.35,0,.19-.16.35-.35.35h-24.7c-.21,0-.38-.17-.38-.37h0v-113.67c0-.36.29-.66.65-.66h21.36c.25,0,.46.21.46.47v9.76c0,.14.12.26.26.26.05,0,.1-.02.14-.05Z"/>
      <path d="M799.59,110.91v-9.82c0-.32.26-.58.58-.58h24.33c.17,0,.31.14.31.32h0c.01,65.13,0,108.84-.05,131.15-.01,6.26-2.14,14.02-4.99,19.68-15.17,30.1-52.62,41.58-82.44,25.85-15.39-8.11-28.16-23.74-30.12-41.45-.03-.24.14-.46.38-.49.02,0,.04,0,.05,0h23.96c.29,0,.55.2.63.49,3.19,12.89,15.77,22.59,28.59,24.41,9.51,1.35,18.2-.86,26.07-6.62,5.93-4.35,12.65-12.43,12.61-20.12,0-.68.01-10.7.04-30.05,0-.13-.1-.23-.22-.24-.06,0-.11.02-.16.06-10.33,8.4-21.28,13.1-34.81,13.01-24.61-.15-45.98-16.01-54.12-38.91-6.21-17.45-3.87-36.56,5.96-52.11,10.36-16.38,28.19-26.08,48.11-26.51,13.31-.28,24.31,3.82,34.57,12.27.19.15.46.13.62-.06.07-.08.1-.18.1-.28ZM766.01,122.62c-18.65-.07-33.82,15.59-33.89,34.97-.07,19.38,15,35.14,33.65,35.21,18.65.07,33.82-15.59,33.89-34.97h0c.07-19.38-15-35.14-33.65-35.21h0Z"/>
      <path d="M927.6,111.3v-10.07c0-.4.32-.72.72-.72h23.87c.39,0,.7.31.7.7h0v113.48c0,.28-.23.51-.51.51h-24.32c-.22,0-.4-.18-.4-.4v-11.13c0-.2-.16-.37-.36-.38-.1,0-.19.03-.26.1-29.85,26.15-74.84,11.15-88.48-24.16-6.77-17.52-4.81-37.82,5.29-53.6,11.28-17.62,30.98-27.73,52.28-26.6,11.57.61,21.85,4.79,30.86,12.55.16.13.39.11.52-.04.06-.07.09-.15.09-.24ZM892.64,122.66c-18.7.59-33.37,16.77-32.76,36.14h0c.61,19.37,16.26,34.6,34.97,34.01,0,0,0,0,0,0,18.7-.59,33.37-16.77,32.76-36.14h0c-.61-19.37-16.26-34.6-34.97-34.01h0Z"/>
      <rect x="329.69" y="143.13" width="25.6" height="72.06" rx=".59" ry=".59"/>
    </g>
  </g>
  <g>
    <ellipse cx="335.74" cy="247.35" rx="3.48" ry="3.64" transform="translate(42 543.36) rotate(-81.6)"/>
    <ellipse cx="645.04" cy="247.39" rx="3.69" ry="3.43" transform="translate(-6.25 16.97) rotate(-1.5)"/>
    <path d="M460.66,255.64c.41-.3.79-.6,1.12-.89,2.95-2.56,8.86-1.75,11.81.66,7.89,6.46,4.85,21.17-6.39,21.23-2.71.01-4.8-.83-6.29-2.54-.16-.19-.46-.22-.65-.05-.1.09-.16.22-.16.35v1.06c0,.44-.35.79-.79.79h-4.41c-.36,0-.65-.29-.65-.65v-30.41c0-.54.43-.97.97-.97h4.05c.51,0,.92.42.92.93h0v10.25c0,.17.14.3.31.29.06,0,.11-.02.16-.05ZM466.12,258.45c-3.31-.03-6.02,2.84-6.05,6.42h0c-.03,3.57,2.63,6.49,5.93,6.52h0c3.31.03,6.02-2.84,6.05-6.42h0c.03-3.57-2.63-6.49-5.93-6.52h0Z"/>
    <path d="M208.49,246.31c1.35,0,2.83,0,4.46,0,.41,0,.77.26.89.65l8.84,28.33c.13.41-.1.85-.51.98-.08.02-.16.04-.24.04h-4.52c-.58,0-1.1-.38-1.28-.94l-1.79-5.75c-.1-.31-.38-.52-.71-.52-.49,0-2.24-.02-5.23-.03-2.99-.01-4.74-.02-5.23-.01-.32,0-.61.21-.71.51l-1.84,5.74c-.18.56-.71.94-1.29.93l-4.52-.03c-.44,0-.79-.36-.78-.79,0-.08.01-.16.04-.24l9.06-28.26c.12-.38.48-.64.89-.64,1.63.02,3.12.03,4.47.03ZM204.41,262.35c-.14.45.11.94.56,1.08.08.03.17.04.26.04h6.34c.47-.02.86-.4.85-.88,0-.08-.01-.17-.04-.25l-3.18-10.08c-.15-.45-.63-.7-1.08-.55-.27.09-.47.3-.56.56l-3.15,10.08Z"/>
    <rect x="214.36" y="258.12" width="30" height="6.36" rx=".84" ry=".84" transform="translate(-32.34 490.21) rotate(-89.9)"/>
    <path d="M315.27,247.81c0-.32.26-.58.57-.58h4.76c.31,0,.57.26.57.58v5.25c0,.33.27.59.6.59h5.54c.47,0,.86.39.86.86v3.38c0,.5-.4.9-.9.9h-5.25c-.48,0-.87.38-.88.85,0,.35.03,3.02.1,8.01.05,3.75,2.47,4.37,5.44,2.92.5-.24,1.1-.03,1.34.46,0,.01.01.02.02.04l1.21,2.77c.14.32.07.69-.18.93-.95.97-2.43,1.55-4.43,1.74-6.19.59-9.33-2.17-9.4-8.3-.05-4.87-.04-7.8.05-8.8.03-.32-.21-.6-.53-.63-.02,0-.03,0-.05,0h-2.52c-.5,0-.9-.4-.9-.9v-3.38c0-.43.35-.78.78-.78h2.61c.33,0,.59-.26.59-.58v-5.33Z"/>
    <path d="M655.52,247.86c0-.32.26-.57.57-.57h4.74c.31.02.56.27.56.59v5.22c-.01.32.25.58.58.59l5.52.02c.47,0,.84.38.85.85v3.37c-.02.49-.42.89-.91.89h-5.22c-.47-.01-.86.36-.88.83,0,.35.02,3.01.08,7.97.04,3.73,2.45,4.35,5.4,2.92.5-.24,1.09-.04,1.34.45,0,.02.02.04.02.05l1.19,2.76c.14.31.06.68-.18.92-.95.96-2.42,1.53-4.41,1.72-6.17.57-9.28-2.19-9.33-8.28-.04-4.84-.02-7.76.07-8.76.02-.32-.22-.6-.54-.62-.01,0-.02,0-.03,0h-2.51c-.49-.02-.89-.42-.89-.91v-3.36c0-.43.35-.78.78-.78h2.6c.32.01.58-.24.59-.56v-5.31Z"/>
    <path d="M264.75,275.48c0,.49-.4.88-.89.88l-4.4-.04c-.54-.01-.97-.45-.96-.99l.21-21.13c0-.39.32-.7.71-.7l4.17.04c.47,0,.89.33,1.01.79.13.49.26.78.39.89.05.03.34-.1.87-.39,6.53-3.74,14.36-1.34,14.77,6.94.16,3.22.19,7.73.08,13.53-.01.71-.6,1.27-1.31,1.26h0l-3.61-.04c-.71,0-1.28-.58-1.27-1.29h0s.12-11.95.12-11.95c.03-2.53-2-4.62-4.53-4.65-.1,0-.2,0-.31,0l-.41.02c-2.52.14-4.49,2.21-4.52,4.73l-.12,12.09Z"/>
    <path d="M308.21,264.89c0,7.02-.01,10.55-.02,10.59-.05.32-.3.59-.62.67-1.14.28-3.66.09-4.55,0-.53-.04-.8-.47-.79-1.29,0-.24-.19-.44-.43-.45-.09,0-.18.03-.26.08-8.12,5.64-17.14-.31-17.13-9.63,0-9.33,9.05-15.25,17.15-9.6.2.14.47.09.61-.11.05-.08.08-.17.08-.26,0-.82.26-1.25.79-1.29.89-.07,3.42-.26,4.55.02.33.09.57.35.62.68,0,.04,0,3.57,0,10.58ZM296.11,258.69c-3.23.15-5.72,3.11-5.56,6.6.16,3.49,2.92,6.2,6.15,6.05h0c3.23-.15,5.72-3.11,5.56-6.6-.16-3.49-2.92-6.2-6.15-6.05h0Z"/>
    <path d="M373.95,266.42c-.28,0-.5.22-.5.51,0,.04,0,.08.01.11,1.02,4.73,7.26,5.46,10.19,3.01.81-.68,1.96-.78,2.89-.26l1.59.91c.75.42,1.02,1.37.6,2.12-.08.14-.18.27-.31.39-2.8,2.58-6.25,3.72-10.35,3.41-14.79-1.11-14.23-23.78.88-23.35,7.21.2,10.91,4.31,11.1,12.32.01.45-.34.82-.79.83,0,0-.01,0-.02,0h-15.29ZM373.86,262.32l9.8-.02c.1,0,.18-.08.18-.18v-.12c0-2.15-2.24-3.89-4.99-3.89h-.18c-2.76,0-4.99,1.75-4.99,3.9h0v.13c0,.1.08.18.18.18Z"/>
    <path d="M409.83,264.98c.08,5.9,6.8,8.86,10.61,3.65.42-.57,1.18-.79,1.84-.52l3.26,1.32c.57.23.84.88.61,1.45-.03.08-.07.15-.12.22-3.55,5.11-8.5,6.66-14.87,4.65-4.59-1.46-7.35-5.72-7.42-10.69-.06-4.97,2.58-9.31,7.13-10.88,6.31-2.19,11.3-.77,14.99,4.24.37.49.27,1.19-.22,1.55-.07.05-.15.1-.23.14l-3.22,1.4c-.65.29-1.42.1-1.86-.46-3.94-5.11-10.58-1.97-10.5,3.93Z"/>
    <path d="M487.41,266.37c-.28,0-.5.23-.5.51,0,.03,0,.07.01.1.98,4.72,7.19,5.49,10.13,3.07.81-.67,1.96-.77,2.88-.24l1.57.92c.75.43,1.01,1.38.58,2.12-.08.14-.18.27-.3.38-2.81,2.55-6.26,3.65-10.34,3.32-14.72-1.2-14.01-23.78,1.04-23.25,7.18.25,10.84,4.36,10.97,12.35,0,.45-.35.81-.8.82,0,0,0,0-.01,0l-15.23-.1ZM487.35,262.36h9.72c.1,0,.19-.09.19-.19h0v-.1c0-2.2-2.19-3.99-4.9-3.99h-.3c-2.71,0-4.9,1.79-4.9,3.99v.1c0,.1.09.19.19.19h0Z"/>
    <path d="M513.4,255.82c0,.25.2.46.45.47.15,0,.29-.07.38-.19.07-.1.22-.34.44-.71.96-1.59,4.28-2.19,5.99-2.1.7.04,1.26.62,1.26,1.32v3.49c-.01.61-.51,1.11-1.13,1.11-.04,0-.09,0-.13,0-6.32-.72-7.21,3.5-7.13,8.95.07,4.27.11,6.72.14,7.33.02.46-.34.84-.79.86-.01,0-.03,0-.04,0h-4.5c-.46,0-.83-.39-.83-.85,0,0,0,0,0-.01l.05-21.33c0-.3.24-.54.54-.54,0,0,0,0,.01,0h4.45c.47.01.85.39.85.86v1.35Z"/>
    <path d="M525.96,269.77c.41-.41,1.04-.46,1.51-.14,2.49,1.73,5.19,2.3,8.08,1.73.84-.17,1.36-.54,1.56-1.12.31-.93-.19-1.93-1.11-2.24-.04-.01-.08-.02-.12-.03-3.77-.95-5.95-1.52-6.55-1.69-3.94-1.12-5.98-4.58-4.62-8.52,1.98-5.73,13.34-5.58,17.02-1.93.28.27.36.69.2,1.05-.5,1.13-1.22,1.97-2.17,2.51-.33.19-.74.2-1.07.01-2.39-1.35-4.76-1.76-7.13-1.21-.87.2-1.42,1.04-1.24,1.88.04.18.11.36.22.52.45.69,1.26,1.13,2.41,1.33,4.83.85,11.01,2.22,9.99,8.58-.47,2.93-2.35,4.82-5.64,5.67-4.63,1.19-9.07.32-13.31-2.6-.5-.35-.62-1.03-.28-1.52.04-.05.08-.1.12-.15l2.13-2.13Z"/>
    <path d="M552.44,266.45c-.28,0-.5.22-.5.51,0,.04,0,.08.01.11,1.03,4.74,7.28,5.45,10.2,3,.81-.69,1.97-.79,2.9-.27l1.59.91c.75.43,1.02,1.39.59,2.14-.08.14-.18.27-.3.37-2.79,2.59-6.24,3.73-10.35,3.43-14.8-1.08-14.29-23.77.84-23.37,7.21.19,10.92,4.29,11.13,12.31.01.45-.34.82-.79.83,0,0-.01,0-.02,0l-15.3.03ZM552.29,262.38l9.6-.18c.09,0,.17-.08.17-.17,0,0,0,0,0-.01v-.12c-.06-2.17-2.25-3.88-4.91-3.83h-.28c-2.67.05-4.79,1.85-4.75,4.02,0,0,0,0,0,0v.12c0,.09.08.16.17.16Z"/>
    <path d="M571.27,264.92c-.01-4.97,2.69-9.28,7.25-10.8,6.34-2.11,11.32-.64,14.95,4.42.36.49.25,1.19-.24,1.56-.07.05-.14.09-.22.12l-3.24,1.37c-.66.28-1.43.08-1.86-.49-3.88-5.15-10.56-2.09-10.55,3.81.01,5.91,6.7,8.94,10.57,3.78.43-.57,1.19-.78,1.85-.5l3.24,1.36c.57.24.83.9.59,1.46-.03.08-.07.15-.12.22-3.61,5.07-8.58,6.56-14.93,4.47-4.57-1.51-7.28-5.81-7.29-10.78Z"/>
    <path d="M630.93,256.09c.07-.1.22-.34.44-.71.95-1.59,4.26-2.19,5.96-2.11.71.03,1.26.61,1.26,1.32v3.47c0,.61-.5,1.11-1.11,1.11-.04,0-.09,0-.13,0-6.3-.7-7.18,3.5-7.08,8.93.07,4.26.12,6.69.15,7.3.02.45-.33.84-.78.86-.01,0-.03,0-.04,0h-4.48c-.46,0-.83-.38-.83-.84h0v-21.25c0-.3.24-.54.54-.54h4.43c.47,0,.85.38.85.85v1.34c0,.25.21.46.47.45.14,0,.27-.07.35-.17Z"/>
    <rect x="332.58" y="253.52" width="6.28" height="22.78" rx=".92" ry=".92" transform="translate(-.46 .59) rotate(-.1)"/>
    <path d="M354,268.77c.19,0,.32-.12.41-.35,1.82-4.9,3.65-9.69,5.5-14.38.1-.24.33-.4.59-.4h5.62c.15,0,.27.12.27.27,0,.04,0,.08-.02.11l-8.89,21.51c-.18.43-.58.74-1.05.79-.23.02-1.05.03-2.46.03-1.41,0-2.22-.02-2.45-.05-.47-.06-.86-.36-1.04-.79l-8.74-21.58c-.06-.14.01-.3.15-.35.03-.01.07-.02.1-.02l5.62.03c.26,0,.5.17.59.41,1.81,4.7,3.61,9.51,5.39,14.42.09.23.22.35.41.35Z"/>
    <path d="M439.07,268.24c.05.14.21.21.35.15.07-.03.13-.08.16-.15l5.31-13.84c.2-.51.68-.84,1.22-.84l4.58.02c.3,0,.55.25.55.55,0,.07-.01.13-.04.2l-12.69,31.5c-.22.55-.75.91-1.34.91h-4.24c-.38-.02-.69-.33-.68-.71,0-.09.02-.17.05-.25l3.8-9.04c.24-.58.23-1.22-.02-1.79l-8.93-20.24c-.19-.4-.01-.88.39-1.06.11-.05.23-.08.35-.08l4.16.04c.79,0,1.5.49,1.79,1.23l5.23,13.4Z"/>
    <path d="M612.8,254.43c0-.49.39-.88.88-.88h4.36c.54,0,.97.43.97.97h0v20.97c0,.39-.31.7-.7.7h-4.14c-.47,0-.88-.32-1.01-.77-.13-.48-.27-.77-.4-.88-.05-.03-.34.1-.86.4-6.44,3.77-14.23,1.47-14.72-6.75-.19-3.19-.26-7.67-.21-13.42,0-.7.58-1.26,1.28-1.26h3.59c.7,0,1.27.57,1.27,1.27h0v11.86c0,2.52,2.04,4.56,4.56,4.56.1,0,.19,0,.29,0l.4-.02c2.5-.16,4.44-2.24,4.44-4.74v-12Z"/>
    <path d="M688.87,253.67h5.44c.18,0,.33.16.32.34,0,.04,0,.08-.02.11l-13.19,32.38c-.05.12-.17.21-.3.21h-5.45c-.18,0-.33-.16-.32-.34,0-.04,0-.08.02-.11l4.21-10.35c.03-.08.03-.18-.01-.26l-9.35-21.54c-.07-.17,0-.36.17-.43.04-.02.08-.03.13-.03h5.9c.14,0,.26.08.31.21l5.47,14.13c.07.17.26.25.43.19.08-.03.15-.1.18-.18l5.76-14.12c.05-.12.17-.21.3-.21Z"/>
    <rect x="633.74" y="261.86" width="22.58" height="6.2" rx=".66" ry=".66" transform="translate(377.82 909.07) rotate(-89.8)"/>
    <rect x="242.88" y="255.59" width="5.84" height="15.88" rx="1.1" ry="1.1" transform="translate(-18.16 508.88) rotate(-89.9)"/>
  </g>
</svg>